<svg width="270" height="270" viewBox="0 0 270 270" fill="none" xmlns="http://www.w3.org/2000/svg">
<rect width="270" height="270" rx="135" fill="#F6F5FF" fill-opacity="0.7"/>
<path d="M84.8162 47.4865C83.9772 46.092 82.8622 44.8835 81.5397 43.9349C80.2172 42.9864 78.715 42.3179 77.125 41.9702C73.8887 41.2034 70.4817 41.6969 67.5962 43.3509C64.7106 45.0049 62.5627 47.6951 61.5887 50.8752C60.5337 54.2952 60.8387 57.8627 57.2925 60.8315C53.1825 64.269 47.59 65.699 38.6975 74.4277C36.0609 77.0161 33.7611 79.9266 31.8525 83.0902C29.9839 86.166 28.8 89.6084 28.3812 93.1828C28.2926 95.819 28.7371 98.4459 29.6882 100.906C30.6394 103.366 32.0775 105.609 33.9162 107.5C29.6754 104.665 26.6455 100.349 25.42 95.3975C24.1946 90.4456 24.862 85.2146 27.2912 80.729C28.8224 77.9869 30.7645 75.4955 33.05 73.3415C37.6751 68.7221 43.1555 65.0475 49.185 62.5227C53.3262 60.909 57.2537 59.684 58.4612 54.8977C59.2637 51.7202 58.9162 49.0965 60.9162 46.3277C62.1517 44.6376 63.9396 43.433 65.97 42.9227C66.0909 42.8837 66.1919 42.7997 66.2521 42.688C66.3124 42.5764 66.3272 42.4457 66.2935 42.3234C66.2599 42.201 66.1802 42.0964 66.0712 42.0314C65.9624 41.9662 65.8325 41.9458 65.7087 41.974C61.6087 42.9927 58.5375 46.3178 58.0425 51.7115C57.9066 53.3187 57.5125 54.8936 56.875 56.3752C55.54 58.9352 52.7287 60.1077 50.1762 61.094C47.0984 62.1709 44.1626 63.6177 41.4337 65.4027C38.6334 67.2495 35.9809 69.3111 33.5 71.569C31.0877 73.7166 28.9754 76.1791 27.22 78.8902C25.552 81.5094 24.4697 84.4579 24.0471 87.5341C23.6246 90.6102 23.8719 93.7415 24.7719 96.7132C25.672 99.685 27.2036 102.427 29.262 104.752C31.3202 107.077 33.8567 108.929 36.6975 110.183C36.9115 103.495 38.6945 96.9511 41.9025 91.079C44.924 85.9835 49.0456 81.6275 53.9662 78.329C64.2604 71.3505 76.4047 67.607 88.8412 67.579L88.8725 67.5878C89.0237 67.5878 89.1737 67.599 89.325 67.6027C89.2087 60.859 88.21 53.3202 84.8162 47.4865ZM78.4725 59.4202C77.6206 60.356 76.497 61.0015 75.2596 61.2662C74.0221 61.531 72.7327 61.4017 71.5725 60.8965C70.4557 60.4344 69.5162 59.6269 68.8914 58.5922C68.2665 57.5576 67.9892 56.3501 68.1 55.1465C68.2466 53.9237 68.765 52.7754 69.5851 51.8565C70.4052 50.9376 71.4875 50.2926 72.6859 50.0086C73.8844 49.7245 75.141 49.8151 76.2862 50.2681C77.4315 50.7211 78.4101 51.5146 79.09 52.5415C79.7289 53.6057 80.0134 54.8452 79.9024 56.0815C79.7914 57.3177 79.2907 58.4869 78.4725 59.4202Z" fill="#5C59F0"/>
<path d="M83.0414 245.973C72.9362 241.34 62.0405 238.676 50.9377 238.125C39.669 237.5 26.394 240.891 16.5627 245.971C16.4744 246.029 16.4067 246.113 16.3693 246.211C16.3319 246.31 16.3268 246.419 16.3545 246.52C16.3823 246.623 16.4415 246.713 16.5238 246.779C16.6061 246.845 16.7072 246.884 16.8127 246.889H82.794C83.2502 246.89 83.5089 246.175 83.0414 245.973Z" fill="#5C59F0"/>
<path d="M173.103 245.973C165.447 242.483 157.332 240.106 149.003 238.914C141.832 237.718 134.508 237.77 127.354 239.068C120.144 240.345 113.16 242.671 106.625 245.973C106.55 246.021 106.489 246.09 106.449 246.17C106.409 246.25 106.391 246.34 106.398 246.429C106.404 246.519 106.435 246.605 106.486 246.679C106.537 246.753 106.607 246.811 106.689 246.848C106.814 246.915 105.29 246.89 172.854 246.89C173.308 246.89 173.569 246.178 173.103 245.973Z" fill="#5C59F0"/>
<path d="M203.625 116.329L198.726 125.329C198.424 125.885 199.273 126.383 199.576 125.829C201.005 123.204 204.271 117.204 204.474 116.829C204.778 116.269 203.928 115.772 203.625 116.329Z" fill="black"/>
<path d="M253.055 140.233L240.352 143.116C239.734 143.256 239.995 144.205 240.613 144.065L253.318 141.181C253.934 141.041 253.673 140.093 253.055 140.233Z" fill="black"/>
<path d="M253.317 188.015C253.317 188.015 241.375 184.665 240.86 184.533C240.736 184.504 240.606 184.525 240.497 184.59C240.388 184.655 240.308 184.76 240.275 184.883C240.241 185.004 240.256 185.135 240.316 185.246C240.377 185.359 240.477 185.443 240.598 185.481C240.598 185.481 252.541 188.83 253.055 188.964C253.178 188.994 253.31 188.974 253.42 188.909C253.53 188.844 253.61 188.739 253.643 188.616C253.678 188.494 253.663 188.361 253.602 188.25C253.541 188.138 253.438 188.054 253.317 188.015Z" fill="black"/>
<path d="M216.732 215.601C216.607 214.976 215.66 215.244 215.784 215.863C216.111 217.494 218.677 230.308 218.677 230.308C218.802 230.933 219.75 230.665 219.626 230.045C219.335 228.593 217.052 217.2 216.732 215.601Z" fill="black"/>
<path d="M165.375 216.42C164.464 220.405 162.385 229.489 162.257 230.045C162.116 230.661 163.064 230.92 163.205 230.307L166.33 216.682C166.464 216.065 165.515 215.801 165.375 216.42Z" fill="black"/>
<path d="M120.585 226.631L128.585 215.98C128.966 215.474 128.111 214.98 127.736 215.48C125.404 218.585 120.074 225.686 119.736 226.13C119.355 226.641 120.209 227.131 120.585 226.631Z" fill="black"/>
<path d="M113.972 172.792L101.25 176.934C100.651 177.129 100.907 178.079 101.512 177.882L114.237 173.741C114.833 173.546 114.577 172.595 113.972 172.792Z" fill="black"/>
<path d="M210.277 160.565C210.03 159.335 209.527 158.173 208.801 157.15C208.483 156.701 208.08 156.323 207.612 156.035C207.145 155.748 206.625 155.556 206.082 155.475C205.54 155.394 204.986 155.423 204.455 155.56C203.923 155.698 203.426 155.94 202.991 156.275C202.053 157.053 201.316 158.041 200.837 159.161C200.36 160.28 200.155 161.498 200.241 162.713C200.228 164.535 200.532 166.475 200.41 168.338C201.373 168.001 202.363 167.745 203.368 167.571L203.401 167.555C205.031 167.223 206.688 167.049 208.352 167.036L208.377 167.043C209.417 167.004 210.46 167.064 211.488 167.221C211.25 165.773 210.885 163.506 210.277 160.565ZM204.503 164.885C203.653 164.698 202.913 164.181 202.445 163.449C201.976 162.716 201.817 161.828 202.003 160.979C202.115 160.394 202.396 159.854 202.81 159.426C203.223 158.998 203.753 158.7 204.335 158.569C204.916 158.439 205.522 158.48 206.08 158.689C206.638 158.898 207.122 159.264 207.475 159.745C207.883 160.244 208.13 160.856 208.181 161.499C208.232 162.141 208.087 162.785 207.765 163.344C207.441 163.901 206.956 164.348 206.372 164.624C205.79 164.899 205.136 164.99 204.5 164.885H204.503Z" fill="#5C59F0"/>
<path d="M163.417 183.435H178.584C178.71 183.429 178.829 183.374 178.917 183.282C179.003 183.191 179.052 183.07 179.052 182.942C179.052 182.816 179.003 182.695 178.917 182.604C178.829 182.512 178.71 182.457 178.584 182.451H163.417C163.29 182.457 163.172 182.512 163.084 182.604C162.998 182.695 162.949 182.816 162.949 182.942C162.949 183.07 162.998 183.191 163.084 183.282C163.172 183.374 163.29 183.429 163.417 183.435Z" fill="black"/>
<path d="M210.958 190.813C209.993 186.699 209.458 185.055 208.639 181.674C208.073 178.851 207.327 176.069 206.404 173.341C206.37 173.241 206.308 173.155 206.222 173.094C206.137 173.033 206.034 172.999 205.929 172.999C205.825 172.999 205.723 173.033 205.638 173.094C205.552 173.155 205.489 173.241 205.455 173.341C205.15 174.61 204.912 175.893 204.737 177.185C204 182.488 204.229 185.193 203.237 191.491C203.22 191.561 203.218 191.634 203.232 191.704C203.245 191.775 203.274 191.841 203.317 191.9C203.358 191.958 203.413 192.006 203.474 192.043C203.537 192.078 203.607 192.1 203.678 192.106C206.01 192.198 208.344 191.966 210.613 191.418C210.735 191.379 210.839 191.295 210.904 191.183C210.968 191.07 210.987 190.939 210.958 190.813Z" fill="#5C59F0"/>
<path d="M178.789 190.035H139.846C139.72 190.041 139.601 190.096 139.514 190.187C139.428 190.279 139.379 190.4 139.379 190.526C139.379 190.652 139.428 190.775 139.514 190.866C139.601 190.957 139.72 191.012 139.846 191.019H178.789C178.855 191.022 178.923 191.011 178.985 190.989C179.048 190.965 179.105 190.93 179.153 190.884C179.201 190.837 179.24 190.782 179.266 190.721C179.293 190.66 179.306 190.594 179.306 190.526C179.306 190.46 179.293 190.394 179.266 190.332C179.24 190.271 179.201 190.216 179.153 190.17C179.105 190.124 179.048 190.087 178.985 190.065C178.923 190.041 178.855 190.031 178.789 190.035Z" fill="black"/>
<path d="M195.42 183.424C195.503 185.424 195.699 190.188 195.699 190.188C195.725 190.813 196.709 190.823 196.683 190.188C196.683 190.063 196.492 185.563 196.404 183.424C196.375 182.793 195.394 182.789 195.42 183.424Z" fill="black"/>
<path d="M215.125 180.895C215.676 182.981 216.956 187.253 216.956 187.253C216.995 187.374 217.079 187.475 217.191 187.535C217.302 187.595 217.434 187.61 217.555 187.576C217.677 187.543 217.782 187.463 217.847 187.354C217.912 187.245 217.934 187.115 217.905 186.991C217.852 186.791 216.647 182.549 216.074 180.633C216.035 180.511 215.951 180.409 215.839 180.348C215.727 180.288 215.595 180.273 215.472 180.306C215.35 180.34 215.245 180.42 215.18 180.53C215.115 180.64 215.095 180.771 215.125 180.895Z" fill="black"/>
<path d="M192.375 46.3457C193.625 44.6844 203.022 32.1544 203.48 31.5444C203.855 31.0382 203.006 30.5444 202.63 31.0444L191.527 45.8494C191.147 46.3557 192 46.8469 192.375 46.3457Z" fill="black"/>
<path d="M194.443 48.9825C196.225 47.9975 209.5 40.4825 210.138 40.1075C210.25 40.0413 210.333 39.9329 210.365 39.8063C210.398 39.6798 210.379 39.5453 210.313 39.4325C210.246 39.3199 210.138 39.238 210.011 39.2053C209.885 39.1724 209.75 39.1913 209.638 39.2575C207.854 40.2425 194.579 47.7575 193.941 48.1325C193.829 48.1989 193.746 48.3073 193.714 48.4338C193.681 48.5604 193.7 48.6949 193.766 48.8075C193.833 48.9203 193.941 49.002 194.068 49.0349C194.194 49.0676 194.329 49.0489 194.441 48.9825H194.443Z" fill="black"/>
<path d="M196.974 23.6837C197.164 23.0787 196.214 22.8199 196.025 23.4224C195.311 25.7024 189.954 42.8049 189.694 43.6337C189.505 44.2387 190.454 44.4987 190.642 43.8949C190.787 43.4349 196.906 23.8987 196.974 23.6837Z" fill="black"/>
<path d="M16.8121 246.971H82.8434C82.9592 246.959 83.0687 246.913 83.1577 246.838C83.2468 246.763 83.3114 246.663 83.3434 246.55C83.6484 244.649 91.8897 193.195 92.1272 191.715C103.233 234.644 105.671 244.175 106.262 246.25C106.463 246.963 106.595 246.943 107.012 246.951C108.437 246.983 172.732 246.969 172.858 246.969C173.387 246.969 173.693 246.136 173.148 245.899C169.377 244.231 165.508 242.79 161.566 241.583C161.253 240.61 159.15 235.159 149.111 206.469H231.468C231.62 206.466 231.765 206.405 231.872 206.299C231.978 206.191 232.04 206.046 232.042 205.895V138.671C232.04 138.52 231.978 138.375 231.872 138.269C231.765 138.161 231.62 138.1 231.468 138.098H176.566C175.117 136.763 173.482 135.646 171.712 134.783C168.926 133.448 169.478 133.908 149.587 128.356L199.422 104.886C199.487 104.847 199.545 104.795 199.59 104.733C199.635 104.672 199.667 104.602 199.686 104.528C199.703 104.453 199.707 104.376 199.695 104.301C199.683 104.225 199.657 104.153 199.617 104.088C199.605 104.066 194.22 97.5539 187.085 88.9314L198.108 86.2176C200.086 85.8508 202.027 85.307 203.908 84.5926C206.533 83.5926 207.985 80.2101 206.048 78.2926C205.251 77.6536 204.28 77.2714 203.261 77.1964C201.386 76.9151 199.497 76.7251 197.606 76.6114C198.857 76.1606 200.086 75.6458 201.285 75.0689C203.355 74.2296 205.236 72.9829 206.816 71.4026C208.093 69.9364 208.771 67.8501 207.376 66.2114C206.106 64.7114 203.856 64.5751 202.046 64.4789C198.288 64.2789 199.532 64.9789 202.975 62.8764C205.201 61.5164 207.522 59.0751 206.651 56.2514C205.751 53.3339 202.446 52.0676 199.475 52.3914C197.325 52.6251 198.257 52.4876 177.432 56.6539C179.421 51.9614 179.3 52.4151 179.763 51.0926C182.401 43.5926 176.717 39.1889 171.786 42.8014C170.591 43.6769 169.528 44.7201 168.632 45.8989C167.681 47.1216 166.812 48.4053 166.028 49.7414C164.438 52.5403 163.036 55.4411 161.83 58.4251C156.955 52.5501 153.33 48.1751 152.433 47.1089C152.103 46.7164 152.197 46.7339 151.661 46.8676C149.648 47.3526 139.725 50.3451 89.3322 65.2101C89.0334 59.1051 87.8984 52.6126 84.8922 47.4451C81.6084 41.8001 73.6422 39.7564 67.5884 43.2589C64.68 44.9356 62.5114 47.6479 61.5159 50.8539C60.4634 54.2651 60.7659 57.8301 57.2397 60.7739C53.2034 64.1489 47.4534 65.7239 38.6459 74.3689C36.0042 76.9626 33.6998 79.879 31.7872 83.0489C29.9115 86.1373 28.7242 89.5938 28.3059 93.1826C28.1165 98.2831 29.9365 103.254 33.3747 107.026C29.3438 104.135 26.5087 99.8695 25.4025 95.0336C24.2964 90.1976 24.9955 85.1241 27.3684 80.7676C28.8958 78.0293 30.8352 75.5419 33.1184 73.3926C45.7734 61.3089 52.2784 63.0176 56.4434 58.7426C60.1022 54.9926 58.0134 50.4839 60.9959 46.3576C62.2223 44.6904 63.9918 43.503 65.9997 43.0001C66.1463 42.9598 66.2709 42.8626 66.346 42.7303C66.4212 42.598 66.4407 42.4413 66.4003 42.2945C66.3598 42.1479 66.2628 42.0233 66.1304 41.9481C65.998 41.8729 65.8413 41.8535 65.6947 41.8939C61.5697 42.9176 58.4684 46.2689 57.9709 51.6889C57.8332 53.2916 57.438 54.8618 56.8009 56.3389C55.4759 58.8789 52.6847 60.0414 50.1509 61.0201C47.0667 62.0995 44.1248 63.5488 41.3897 65.3364C38.585 67.1879 35.9283 69.254 33.4434 71.5164C31.0268 73.6699 28.9104 76.1383 27.1509 78.8551C25.4972 81.4873 24.4264 84.4429 24.0105 87.5234C23.5945 90.6039 23.8432 93.7378 24.7395 96.7141C25.6358 99.6905 27.1592 102.441 29.2072 104.779C31.255 107.117 33.7799 108.99 36.6122 110.271C36.3284 116.612 36.6729 122.964 37.6409 129.236C38.6419 136.524 40.0293 143.754 41.7972 150.894C42.4959 153.659 42.4909 153.701 42.6922 153.861C42.0259 156.656 21.9621 240.599 21.2496 243.703C19.6121 244.39 18.0309 245.125 16.5284 245.903C16.4236 245.969 16.3426 246.066 16.2972 246.181C16.2519 246.296 16.2445 246.423 16.2762 246.541C16.3079 246.661 16.3771 246.768 16.4735 246.845C16.5699 246.923 16.6886 246.966 16.8121 246.971ZM170.008 245.824H109.383C118.891 241.429 130.54 238.61 140.996 239.199C150.981 239.686 160.802 241.929 170.008 245.824ZM230.883 139.245V205.325H122.568C122.221 197.656 122.146 181.644 122.051 164.396C128.851 166.996 130.658 167.514 137.527 170.235C137.417 173.509 137.9 176.776 138.953 179.878C140.263 183.144 142.516 185.303 146.025 185.561C147.861 185.715 149.688 185.178 151.15 184.055C152.551 182.809 153.577 181.195 154.112 179.398C155.487 174.826 155.295 171.626 155.462 166.246C157.023 172.07 157.18 174.534 159.757 177.071C160.277 177.683 160.92 178.179 161.642 178.529C162.365 178.878 163.152 179.073 163.955 179.1C164.84 179.054 165.702 178.798 166.47 178.354C167.237 177.91 167.888 177.29 168.371 176.546C170.203 173.056 171.053 169.135 170.832 165.199C170.711 161.931 170.272 158.684 169.52 155.501C170.927 158.43 172.727 161.153 174.871 163.594C175.623 164.361 176.538 164.949 177.55 165.311C178.561 165.675 179.641 165.805 180.71 165.691C181.77 165.463 182.755 164.973 183.577 164.265C184.398 163.559 185.03 162.656 185.413 161.643C187.413 157.175 186.151 152.441 183.788 148.158C182.685 146.158 181.482 144.204 180.207 142.309C179.473 141.221 178.651 140.196 177.746 139.245H230.883ZM157.8 131.855C166.442 134.23 166.897 134.114 169.533 135.074C175.993 137.425 178.963 142.043 182.362 147.963C183.617 150.068 184.527 152.36 185.057 154.753C185.443 156.666 185.303 158.648 184.652 160.488C184.38 161.424 183.885 162.279 183.208 162.98C182.532 163.683 181.696 164.209 180.771 164.515C179.821 164.655 178.852 164.563 177.947 164.244C177.042 163.925 176.228 163.39 175.576 162.686C172.631 159.534 171.733 156.686 168.595 151.574C168.522 151.458 168.411 151.37 168.28 151.329C168.148 151.288 168.007 151.294 167.881 151.348C167.755 151.401 167.652 151.498 167.59 151.62C167.528 151.743 167.513 151.884 167.546 152.016C169.296 159.309 171.086 167.319 168.105 174.549C167.845 175.333 167.4 176.04 166.807 176.615C166.215 177.189 165.492 177.611 164.701 177.846C163.992 177.976 163.262 177.92 162.581 177.686C161.9 177.451 161.291 177.046 160.812 176.508C159.961 175.72 159.265 174.78 158.76 173.735C157.457 170.395 156.797 165.665 155.555 162.944C155.496 162.849 155.411 162.773 155.311 162.725C155.21 162.676 155.097 162.659 154.986 162.674C154.876 162.688 154.771 162.734 154.686 162.806C154.601 162.878 154.538 162.974 154.506 163.08C154.063 166.716 154.536 171.988 153.598 176.755C152.957 180.024 151.372 183.845 147.623 184.37C146.106 184.59 144.558 184.305 143.221 183.556C139.031 180.806 138.782 174.796 138.667 169.841C138.663 169.716 138.621 169.596 138.545 169.498C138.47 169.399 138.365 169.325 138.246 169.289C130.528 166.218 123.121 163.685 115.521 160.664C133.481 124.241 133.137 125 133.116 125.044C141.383 127.165 149.57 129.591 157.8 131.855ZM170.925 45.0001C175.961 39.8251 180.793 44.0651 178.881 50.0826C178.422 51.442 177.89 52.7749 177.283 54.0751C176.832 55.0876 176.432 56.1226 175.983 57.1364C175.93 57.2353 175.906 57.3476 175.915 57.4598C175.923 57.5719 175.965 57.679 176.033 57.7681C176.102 57.8574 176.195 57.9249 176.301 57.9625C176.407 58.0001 176.521 58.0063 176.631 57.9801C183.396 56.4964 190.207 55.2301 197.006 53.9039C199.67 53.3876 203.178 52.9976 205.017 55.5126C206.59 57.6639 205.052 60.1664 202.908 61.5426C199.958 63.3201 196.688 64.4996 193.283 65.0139C192.555 65.1389 192.867 66.2414 193.59 66.1201C196.946 65.5503 200.362 65.4318 203.75 65.7676C204.545 65.8508 205.313 66.1068 206 66.5176C206.315 66.7133 206.575 66.9863 206.755 67.3108C206.935 67.6351 207.03 68.0003 207.028 68.3714C206.786 71.0639 203.278 72.8139 200.973 73.9464C198.771 75.0005 196.478 75.858 194.125 76.5089C193.997 76.5513 193.887 76.637 193.816 76.7513C193.745 76.8655 193.716 77.0011 193.733 77.1348C193.752 77.2683 193.816 77.3913 193.916 77.4824C194.015 77.5735 194.142 77.6271 194.277 77.6339C197.181 77.6663 200.078 77.8889 202.953 78.3001C203.755 78.342 204.528 78.6051 205.19 79.0601C206.338 80.1339 206.011 82.6851 202.727 83.8301C201.248 84.3439 202.495 83.9551 186.271 87.9476C181.975 82.7614 162.656 59.3751 162.656 59.3751C165.082 53.7126 167.346 48.6764 170.925 45.0001ZM151.73 48.0189C153.23 49.8289 197.69 103.651 198.175 104.208L147.895 127.886C145.25 127.143 139.895 125.685 137.258 124.97C135.222 113.97 132.508 102.785 127.922 92.5414C125.787 87.6895 122.782 83.2696 119.055 79.5001C111.356 71.8126 100.351 67.8276 89.4009 67.5226C89.3947 67.1476 89.3847 66.7726 89.3734 66.3976C117.117 58.2126 148.795 48.9614 151.73 48.0189ZM90.1047 72.0926C90.3007 70.9449 90.1708 69.7653 89.7297 68.6876C94.7207 68.8395 99.6538 69.8021 104.336 71.5376C109.126 73.2788 113.525 75.9499 117.279 79.3973C121.033 82.8446 124.068 87.0004 126.21 91.6251C131.017 101.646 133.907 113.466 135.972 124.475C130.11 123.1 126.496 122.236 123.966 121.624C118.316 120.259 118.063 120.13 110.216 118.208C111.318 116.421 114.106 111.856 115.793 109.431C115.855 109.321 115.88 109.194 115.864 109.069C115.848 108.944 115.791 108.827 115.703 108.736C114.828 107.678 89.3147 76.9764 89.2997 76.9601C89.2185 76.8825 89.1165 76.8301 89.0063 76.8095C88.8959 76.7888 88.7819 76.8006 88.6782 76.8435C88.5744 76.8864 88.4854 76.9586 88.422 77.0513C88.3585 77.1439 88.3234 77.2529 88.3209 77.3651C88.4459 78.4014 92.8209 113.818 92.8597 114.165C92.8497 114.095 92.8397 114.023 92.8309 113.954C91.5809 113.648 83.7709 111.695 83.1872 111.579C82.6872 109.653 72.0984 71.0314 72.0984 71.0314C74.2118 70.4153 76.3559 69.91 78.5222 69.5176C80.2722 72.4039 82.6472 75.4951 86.0897 75.3851C87.0444 75.4148 87.9777 75.0976 88.7167 74.4924C89.4558 73.887 89.9505 73.0346 90.1097 72.0926H90.1047ZM108.975 118.031L94.0497 114.45C93.7847 112.575 89.7059 79.3426 89.6909 79.2139C90.1709 79.7901 114.316 108.878 114.578 109.184C112.758 111.826 110.828 114.988 108.975 118.031ZM87.2059 74.0776C84.3684 75.0201 81.6247 71.8839 80.1209 69.3064C82.8873 68.8763 85.6825 68.659 88.4822 68.6564C89.4797 70.6076 89.3009 73.1789 87.2059 74.0776ZM36.7322 108.616C34.6789 106.987 32.9742 104.961 31.7189 102.66C30.4635 100.359 29.6834 97.8286 29.4247 95.2201C28.9772 88.8126 33.4584 81.5364 37.8659 76.8264C41.8138 72.5951 46.3323 68.9349 51.2909 65.9514C54.6197 63.9401 57.1997 62.7876 59.4847 60.0876C62.1009 56.6439 61.3184 54.7739 63.0559 49.9376C63.826 48.138 65.0257 46.5546 66.5498 45.3263C68.074 44.0979 69.8762 43.262 71.7984 42.8919C73.7207 42.5218 75.7043 42.6288 77.5757 43.2033C79.4469 43.7779 81.1488 44.8026 82.5322 46.1876C83.0624 46.7399 83.5202 47.3574 83.8947 48.0251C87.2747 54.0001 88.1247 60.6976 88.2497 67.5001C83.0793 67.585 77.9363 68.2713 72.9247 69.5451C66.1589 71.3955 59.741 74.3389 53.9247 78.2589C48.9917 81.5639 44.8602 85.93 41.8322 91.0376C38.8474 96.4456 37.1052 102.451 36.7322 108.616ZM39.1972 132.116C38.1048 125.571 37.5912 118.941 37.6622 112.305C37.9122 99.2614 42.2347 88.3676 52.8197 80.4789C58.2815 76.4274 64.4042 73.3526 70.9159 71.3914C71.5309 73.4801 82.0659 112.233 82.1584 112.503C82.181 112.592 82.2282 112.674 82.2943 112.738C82.3605 112.803 82.4433 112.847 82.5334 112.868C84.9672 113.414 124.328 122.905 131.972 124.708C129.747 129.219 116.347 156.379 114.455 160.224C114.422 160.209 69.7709 141.875 66.6297 140.578C66.4828 140.538 66.326 140.558 66.1938 140.633C66.0614 140.708 65.9643 140.833 65.9234 140.979C65.8854 141.125 65.9059 141.281 65.9805 141.413C66.0552 141.545 66.178 141.643 66.3234 141.685C67.1759 142.035 81.1984 147.685 93.6234 152.703C91.3659 152.703 43.9834 152.786 43.4822 152.813C41.7013 145.991 40.271 139.083 39.1972 132.114V132.116ZM43.8659 153.991C46.7922 154.019 57.2922 153.929 95.2834 153.813C96.3397 153.91 102.047 156.7 120.862 163.945C120.908 170.169 121.43 205.57 121.44 205.903C121.443 206.054 121.505 206.198 121.612 206.305C121.719 206.411 121.863 206.473 122.015 206.476H147.89C152.64 220.051 159.091 238.205 160.168 241.183C153.917 239.419 147.487 238.368 141 238.048C131.621 237.774 122.283 239.394 113.545 242.813C111.036 243.768 108.517 244.938 107.251 245.563C106.771 243.706 92.5622 188.803 92.5534 188.771C92.4197 188.255 91.5384 188.195 91.4459 188.771C91.1434 190.663 82.4459 244.948 82.3359 245.584C72.4325 241.134 61.7837 238.578 50.9397 238.046C41.238 237.773 31.5849 239.513 22.5897 243.156C24.2259 236.284 43.7772 154.316 43.8659 153.988V153.991ZM43.4909 239.316C50.5217 238.901 57.576 239.453 64.4572 240.954C69.7598 242.091 74.9442 243.724 79.9422 245.829C69.3834 245.829 21.6371 245.85 19.3171 245.829C26.9453 242.288 35.125 240.084 43.4997 239.313L43.4909 239.316Z" fill="black"/>
<path d="M130.469 88.1256C131.871 87.4081 157.619 73.1594 160.197 71.7506C161.043 71.2869 160.833 70.7244 160.197 70.4731C159.371 70.1444 155.832 68.7894 143.041 63.8481C142.918 63.8139 142.788 63.8213 142.671 63.869C142.553 63.9168 142.456 64.0023 142.392 64.1119C141.757 65.2369 130.281 86.1594 129.654 87.3719C129.326 87.8019 129.968 88.4819 130.469 88.1256ZM133.151 85.3381C137.776 80.4794 146.901 70.8381 147.392 70.3294L158.407 71.4731C157.934 71.6256 155.097 73.2331 133.151 85.3431V85.3381ZM143.151 65.1094L155.986 70.0719C152.218 69.6769 147.341 69.1656 147.168 69.1581C146.877 69.1669 146.736 69.3519 146.559 69.5331C139.301 77.1756 135.151 81.5331 132.777 84.0331C133.624 82.5006 142.726 65.8969 143.153 65.1144L143.151 65.1094Z" fill="black"/>
<path d="M71.5304 60.9664C72.7064 61.481 74.0142 61.6141 75.2697 61.3471C76.5253 61.08 77.6656 60.4263 78.5304 59.4776C79.3612 58.5305 79.8694 57.3439 79.9818 56.089C80.0942 54.8341 79.8048 53.5761 79.1554 52.4964C78.5019 51.452 77.5371 50.639 76.3969 50.1723C75.2567 49.7056 73.9987 49.6086 72.8004 49.8951C71.5667 50.1126 70.4363 50.723 69.5776 51.6351C68.7188 52.5473 68.1777 53.7124 68.0349 54.957C67.8922 56.2016 68.1553 57.459 68.7852 58.5419C69.4151 59.6248 70.3781 60.4753 71.5304 60.9664ZM70.1392 52.7364C70.7461 52.0693 71.5057 51.5593 72.3529 51.2501C72.9184 51.0084 73.5261 50.8803 74.1409 50.8734C74.7559 50.8664 75.3663 50.9808 75.9371 51.2098C76.5079 51.4388 77.0279 51.778 77.4676 52.2081C77.9072 52.6383 78.2577 53.1508 78.4992 53.7164C78.8374 54.5504 78.9357 55.4623 78.7826 56.3491C78.6294 57.2359 78.2312 58.0621 77.6328 58.7344C77.0346 59.4065 76.2601 59.8979 75.3969 60.1528C74.5338 60.4076 73.6167 60.4158 72.7492 60.1764C71.6184 59.8959 70.6193 59.2336 69.9204 58.3014C69.3664 57.4689 69.0894 56.4828 69.1287 55.4835C69.1679 54.4843 69.5216 53.5229 70.1392 52.7364Z" fill="black"/>
<path d="M55.8033 157.734C55.8033 157.581 55.7428 157.435 55.6352 157.328C55.5277 157.22 55.3817 157.16 55.2296 157.16C55.0773 157.16 54.9314 157.22 54.8238 157.328C54.7162 157.435 54.6558 157.581 54.6558 157.734C54.4733 167.689 48.3458 177.681 39.6158 179.123C39.4692 179.163 39.3447 179.26 39.2696 179.393C39.1944 179.525 39.1746 179.681 39.2146 179.829C39.2574 179.974 39.3549 180.096 39.4868 180.171C39.6186 180.246 39.7742 180.266 39.9208 180.229C49.1796 178.773 55.9583 167.575 55.8033 157.734Z" fill="black"/>
<path d="M203.553 116.288C202.125 118.913 198.858 124.913 198.655 125.288C198.302 125.937 199.293 126.517 199.646 125.868C201.076 123.243 204.341 117.243 204.545 116.868C204.898 116.218 203.907 115.638 203.553 116.288Z" fill="black"/>
<path d="M253.033 140.152L240.329 143.037C239.609 143.2 239.913 144.307 240.634 144.144L253.338 141.26C254.058 141.096 253.749 139.99 253.033 140.152Z" fill="black"/>
<path d="M253.724 188.619C253.758 188.477 253.738 188.327 253.666 188.201C253.594 188.075 253.477 187.98 253.338 187.937C253.338 187.937 241.396 184.587 240.882 184.454C240.737 184.42 240.586 184.444 240.458 184.519C240.329 184.595 240.237 184.717 240.197 184.86C240.157 185.004 240.174 185.156 240.246 185.286C240.316 185.417 240.434 185.516 240.576 185.561C240.576 185.561 252.518 188.911 253.033 189.044C253.107 189.061 253.183 189.065 253.257 189.054C253.332 189.042 253.403 189.015 253.468 188.976C253.532 188.936 253.588 188.885 253.632 188.822C253.676 188.761 253.707 188.692 253.724 188.619Z" fill="black"/>
<path d="M219.704 230.025C219.357 228.287 217.184 217.44 216.811 215.58C216.667 214.857 215.561 215.164 215.704 215.885C216.031 217.516 218.478 229.732 218.598 230.33C218.749 231.054 219.849 230.751 219.704 230.025Z" fill="black"/>
<path d="M165.295 216.398C164.382 220.383 162.304 229.466 162.17 230.023C162.006 230.741 163.112 231.049 163.277 230.328C164.189 226.343 166.267 217.259 166.395 216.703C166.566 215.984 165.46 215.676 165.295 216.398Z" fill="black"/>
<path d="M119.875 226.876C120.007 226.95 120.162 226.971 120.309 226.932C120.456 226.895 120.582 226.8 120.661 226.671L128.661 216.02C128.699 215.955 128.724 215.882 128.734 215.807C128.744 215.734 128.74 215.657 128.72 215.585C128.701 215.511 128.668 215.444 128.622 215.384C128.577 215.324 128.52 215.272 128.455 215.235C128.323 215.16 128.167 215.14 128.02 215.179C127.874 215.217 127.748 215.311 127.67 215.441L119.67 226.091C119.593 226.222 119.572 226.379 119.611 226.526C119.649 226.672 119.744 226.799 119.875 226.876Z" fill="black"/>
<path d="M101.529 177.961L114.256 173.82C114.954 173.593 114.656 172.484 113.951 172.713L101.224 176.855C100.524 177.081 100.824 178.191 101.529 177.961Z" fill="black"/>
<path d="M188.706 185.319C192.986 190.977 200.16 192.752 207.25 192.059C212.097 191.665 216.609 189.422 219.847 185.795C223.087 182.167 224.807 177.432 224.652 172.572C224.517 167.852 222.78 163.32 219.726 159.719C214.872 154.176 206.825 152.031 199.69 153.15C183.832 155.636 180.422 174.4 188.706 185.319ZM204.379 191.049C205.261 185.757 205.1 180.981 206.062 175.652C206.642 177.691 207.239 180.412 207.611 181.957C208.302 184.815 209.104 187.645 209.787 190.504C208.009 190.886 206.194 191.069 204.375 191.049H204.379ZM217.781 186.241C217.4 184.894 216.589 182.052 216.156 180.616C216.136 180.542 216.102 180.475 216.056 180.416C216.01 180.356 215.952 180.306 215.886 180.269C215.821 180.232 215.749 180.209 215.674 180.199C215.599 180.19 215.524 180.195 215.451 180.215C215.377 180.235 215.31 180.269 215.25 180.315C215.191 180.362 215.141 180.42 215.104 180.485C215.067 180.55 215.042 180.622 215.034 180.697C215.025 180.772 215.03 180.847 215.05 180.921C215.527 182.734 216.572 186.247 216.825 187.092C215.101 188.506 213.115 189.565 210.98 190.207C210.332 187.427 209.5 184.69 208.87 181.905C208.202 178.96 207.436 176.041 206.519 173.162C206.477 173.037 206.397 172.927 206.291 172.851C206.185 172.774 206.056 172.732 205.925 172.732C205.794 172.732 205.665 172.774 205.559 172.851C205.451 172.927 205.372 173.037 205.331 173.162C203.765 178.985 204.19 185.105 203.152 191.02C200.967 190.925 198.809 190.504 196.749 189.77C196.7 188.582 196.559 185.179 196.486 183.424C196.456 182.687 195.309 182.684 195.339 183.424C195.399 184.886 195.519 187.786 195.58 189.275C193.904 188.531 192.371 187.497 191.054 186.224C190.914 182.837 191.439 179.457 192.601 176.275C193.866 173.524 196.1 171.335 198.875 170.126C200.229 169.495 201.649 169.014 203.107 168.692C203.381 169.27 203.786 169.776 204.289 170.172C204.585 170.394 204.924 170.551 205.284 170.636C205.644 170.72 206.016 170.73 206.38 170.664C206.744 170.596 207.09 170.456 207.397 170.25C207.704 170.044 207.965 169.776 208.164 169.465C208.471 169.051 208.702 168.585 208.846 168.09C211.241 167.927 213.625 168.53 215.655 169.81C217.385 171.139 218.711 172.924 219.485 174.965C220.344 177.096 220.965 179.315 221.336 181.584C220.405 183.314 219.205 184.886 217.781 186.241ZM201.467 167.911C201.586 164.395 200.532 160.581 202.666 158.001C203.294 157.229 204.172 156.701 205.15 156.514C205.641 156.464 206.137 156.534 206.595 156.72C207.052 156.906 207.457 157.201 207.775 157.58C208.52 158.479 209.017 159.555 209.22 160.705C209.619 162.402 210.192 165.962 210.366 167.002C207.371 166.841 204.369 167.149 201.467 167.911ZM207.571 168.121C207.48 168.496 207.28 168.836 206.996 169.097C206.711 169.36 206.356 169.531 205.975 169.592C205.625 169.579 205.287 169.464 205.001 169.262C204.716 169.061 204.494 168.781 204.364 168.457C205.424 168.275 206.496 168.164 207.571 168.126V168.121ZM189.846 159.572C197.547 151.112 212.449 152.947 218.914 160.53C221.156 163.121 222.65 166.277 223.231 169.655C223.812 173.034 223.461 176.506 222.215 179.7C221.716 176.98 220.732 174.371 219.31 172.001C218.492 170.636 217.364 169.485 216.017 168.64C214.671 167.794 213.144 167.279 211.56 167.135C211.116 164.412 210.701 162.219 210.354 160.545C210.102 159.301 209.591 158.125 208.854 157.094C208.53 156.639 208.119 156.255 207.642 155.962C207.167 155.671 206.639 155.479 206.087 155.395C205.535 155.312 204.972 155.341 204.432 155.481C203.892 155.62 203.386 155.866 202.944 156.206C201.994 156.99 201.245 157.989 200.759 159.121C200.274 160.252 200.065 161.485 200.151 162.714C200.14 164.512 200.44 166.432 200.327 168.271C200.077 168.359 199.819 168.454 199.569 168.552C193.934 170.722 191.335 174.369 190.437 179.474C190.115 181.262 189.919 183.071 189.849 184.889C183.549 176.784 184.539 165.402 189.846 159.572Z" fill="black"/>
<path d="M203.281 158.924C202.746 159.298 202.331 159.82 202.087 160.426C201.843 161.033 201.782 161.696 201.91 162.336C202.036 162.978 202.347 163.566 202.805 164.034C203.261 164.5 203.845 164.824 204.482 164.965C205.135 165.076 205.805 164.985 206.405 164.705C207.005 164.424 207.503 163.968 207.836 163.395C208.17 162.824 208.32 162.164 208.267 161.504C208.215 160.844 207.962 160.216 207.543 159.704C207.063 159.058 206.357 158.619 205.566 158.474C204.775 158.329 203.958 158.49 203.281 158.924ZM206.021 163.596C205.787 163.728 205.531 163.81 205.265 163.84C205 163.87 204.731 163.846 204.473 163.77C204.217 163.694 203.978 163.568 203.772 163.399C203.566 163.229 203.395 163.019 203.271 162.783C203.005 162.315 202.917 161.765 203.026 161.238C203.133 160.71 203.431 160.24 203.861 159.915C204.318 159.615 204.877 159.509 205.413 159.621C205.95 159.733 206.42 160.053 206.72 160.511C206.888 160.756 207.003 161.033 207.06 161.325C207.116 161.616 207.111 161.916 207.045 162.206C206.98 162.496 206.855 162.769 206.678 163.009C206.502 163.248 206.278 163.448 206.021 163.596Z" fill="black"/>
<path d="M163.416 183.518H178.583C178.736 183.518 178.881 183.456 178.988 183.349C179.097 183.241 179.157 183.095 179.157 182.944C179.157 182.791 179.097 182.645 178.988 182.538C178.881 182.43 178.736 182.37 178.583 182.37H163.416C163.263 182.37 163.117 182.43 163.009 182.538C162.902 182.645 162.842 182.791 162.842 182.944C162.842 183.095 162.902 183.241 163.009 183.349C163.117 183.456 163.263 183.518 163.416 183.518Z" fill="black"/>
<path d="M178.789 189.954H139.846C139.694 189.954 139.547 190.014 139.44 190.121C139.332 190.229 139.272 190.375 139.272 190.528C139.272 190.68 139.332 190.825 139.44 190.933C139.547 191.041 139.694 191.101 139.846 191.101H178.789C178.941 191.101 179.086 191.041 179.195 190.933C179.302 190.825 179.362 190.68 179.362 190.528C179.362 190.375 179.302 190.229 179.195 190.121C179.086 190.014 178.941 189.954 178.789 189.954Z" fill="black"/>
<path d="M153.047 159.095C153.154 159.202 153.301 159.262 153.452 159.262C153.604 159.262 153.751 159.202 153.858 159.095C153.963 158.986 154.023 158.841 154.023 158.69C154.023 158.537 153.963 158.392 153.858 158.284L150.684 154.284C150.577 154.176 150.431 154.116 150.278 154.116C150.126 154.116 149.979 154.176 149.872 154.284C149.767 154.392 149.708 154.539 149.708 154.69C149.708 154.841 149.767 154.986 149.872 155.095L153.047 159.095Z" fill="black"/>
<path d="M166.848 148.713C167.321 149.28 168.13 148.463 167.66 147.9L164.688 144.331C164.215 143.763 163.407 144.581 163.876 145.143L166.848 148.713Z" fill="black"/>
<path d="M92.7712 146.405L99.3224 149.905C99.9737 150.253 100.554 149.263 99.9012 148.914C97.7187 147.746 95.5354 146.58 93.3512 145.414C92.6999 145.066 92.1187 146.056 92.7712 146.405Z" fill="black"/>
<path d="M93.2258 186.31C94.6133 178.168 96.0833 170.395 97.6421 162.818C97.7908 162.096 96.6846 161.789 96.5358 162.513C94.8708 170.608 93.4108 178.406 92.1183 186.005C91.9996 186.728 93.1008 187.038 93.2258 186.31Z" fill="black"/>
<path d="M173.053 68.8546C173.859 65.8333 174.935 62.8907 176.268 60.0621C176.581 59.3971 175.593 58.8121 175.276 59.4821C173.834 62.5198 172.68 65.6873 171.834 68.9421C171.803 69.064 171.811 69.1927 171.859 69.3092C171.906 69.4257 171.99 69.524 172.098 69.5896C177.56 73.0152 181.628 78.2716 183.571 84.4196C183.793 85.1208 184.901 84.8208 184.679 84.1133C182.708 77.8233 178.594 72.4237 173.053 68.8546Z" fill="black"/>
<path d="M191.662 46.5949C191.794 46.669 191.949 46.689 192.096 46.6505C192.243 46.612 192.368 46.5181 192.447 46.3886L203.551 31.5874C203.627 31.456 203.648 31.2996 203.611 31.1525C203.572 31.0054 203.477 30.8795 203.346 30.8024C203.213 30.7281 203.058 30.7082 202.912 30.7467C202.764 30.7851 202.639 30.8791 202.561 31.0086C201.311 32.6699 191.913 45.1999 191.456 45.8099C191.379 45.9414 191.358 46.0977 191.397 46.2449C191.436 46.392 191.531 46.5179 191.662 46.5949Z" fill="black"/>
<path d="M194.483 49.0541C196.266 48.0679 209.541 40.5604 210.178 40.1791C210.242 40.1395 210.298 40.0874 210.342 40.0259C210.386 39.9645 210.417 39.8947 210.434 39.8211C210.451 39.7474 210.452 39.6711 210.439 39.5967C210.426 39.5224 210.398 39.4514 210.357 39.3879C210.279 39.265 210.158 39.176 210.017 39.1389C209.877 39.1019 209.727 39.1194 209.599 39.1879C209.599 39.1879 194.541 47.6816 193.903 48.0629C193.839 48.1026 193.783 48.1549 193.739 48.2162C193.696 48.2777 193.664 48.3474 193.648 48.421C193.631 48.4947 193.629 48.571 193.643 48.6452C193.656 48.7196 193.683 48.7906 193.724 48.8541C193.802 48.9774 193.923 49.0666 194.064 49.1036C194.206 49.1407 194.354 49.1231 194.483 49.0541Z" fill="black"/>
<path d="M195.946 23.4018L189.615 43.613C189.394 44.318 190.501 44.6218 190.723 43.918C191.37 41.8493 196.39 25.823 197.052 23.7068C197.274 23.0005 196.166 22.698 195.946 23.4018Z" fill="black"/>
</svg>
