<svg width="270" height="270" viewBox="0 0 270 270" fill="none" xmlns="http://www.w3.org/2000/svg">
<rect width="270" height="270" rx="135" fill="#F6F5FF" fill-opacity="0.7"/>
<path d="M80.3011 124.676C78.0811 122.577 75.4831 120.919 72.6448 119.79C70.6756 119.129 68.5779 118.944 66.5234 119.25C64.4689 119.555 62.5159 120.343 60.8242 121.548C59.1324 122.753 57.7499 124.341 56.7897 126.183C55.8296 128.025 55.3191 130.068 55.2998 132.145C55.4078 135.151 56.2416 138.086 57.7298 140.701C62.0293 148.01 65.4612 155.796 67.9561 163.901C69.1508 167.664 70.1436 171.489 70.9298 175.357C69.8536 159.32 77.4861 143.541 93.2923 137.281C89.2431 132.799 84.9032 128.588 80.3011 124.676ZM73.9498 136.704C72.5373 137.464 70.9161 137.746 69.3298 137.506C67.7436 137.266 66.2779 136.517 65.1536 135.374C62.9311 133.123 62.1273 129.291 64.0961 126.615C65.0386 125.385 66.3294 124.467 67.8009 123.98C69.2724 123.494 70.8562 123.462 72.3461 123.888C75.0961 124.491 77.0286 125.945 77.5598 128.743C77.8723 130.281 77.6916 131.879 77.0434 133.308C76.3953 134.737 75.3127 135.925 73.9498 136.704Z" fill="#5C59F0"/>
<path d="M57.8515 142.865C54.7027 137.431 52.8815 131.949 55.6215 126.261C55.879 125.726 56.1665 125.208 56.4552 124.69C56.5152 124.588 56.5321 124.466 56.5021 124.351C56.4721 124.236 56.3977 124.138 56.2952 124.078C56.1928 124.018 56.0707 124.001 55.9558 124.031C55.841 124.061 55.7427 124.135 55.6827 124.238C50.1827 133.099 55.9165 140.896 58.8452 146.523C63.0952 154.676 66.5127 168.803 71.5665 180.273C71.3465 179.106 71.1756 177.934 71.054 176.755C65.5002 162.961 63.964 153.413 57.8515 142.865Z" fill="black"/>
<path d="M176.921 119.838C176.937 119.749 176.985 119.668 177.056 119.61C177.126 119.553 177.215 119.522 177.306 119.523C177.431 119.484 185.988 119.178 186.603 119.174C186.701 119.175 186.796 119.207 186.875 119.266C186.952 119.326 187.008 119.409 187.035 119.503C185.875 115.218 178.46 114.326 176.921 119.838Z" fill="#5C59F0"/>
<path d="M86.9623 174.791C87.3573 175.212 87.9886 174.579 87.5948 174.159C86.8761 173.39 82.2498 168.454 82.0173 168.205C81.6223 167.784 80.9911 168.417 81.3836 168.837L86.9623 174.791Z" fill="black"/>
<path d="M207.042 125.279C201.422 124.515 195.712 124.764 190.18 126.013C189.947 126.066 189.775 126.307 189.912 126.671C193.158 133.582 198.285 139.439 204.705 143.571C206.887 145.185 209.546 146.026 212.26 145.96C213.508 145.871 214.701 145.406 215.682 144.629C216.663 143.85 217.387 142.795 217.76 141.599C220.021 135.106 216.25 127.038 207.042 125.279Z" fill="#5C59F0"/>
<path d="M136.25 60.8197L136.23 60.801C135.345 60.3196 134.339 60.1034 133.333 60.178C132.328 60.2527 131.366 60.6152 130.561 61.2222C129.706 61.9446 129.124 62.9381 128.912 64.0375C128.701 65.1367 128.872 66.2754 129.398 67.2635C129.463 67.3646 129.565 67.4364 129.682 67.4627C129.799 67.4892 129.922 67.4684 130.023 67.4047C130.092 67.361 130.835 66.6247 130.892 66.5685C132.652 64.8297 134.5 63.1785 136.321 61.5047C136.366 61.4575 136.401 61.4009 136.422 61.3389C136.443 61.2769 136.451 61.2109 136.445 61.1456C136.438 61.0804 136.417 61.0174 136.383 60.9611C136.35 60.9047 136.303 60.8565 136.25 60.8197Z" fill="#5C59F0"/>
<path d="M127.15 70.0951L124.207 72.3838C123.753 72.7363 124.39 73.3651 124.84 73.0163L127.783 70.7276C128.237 70.3763 127.6 69.7513 127.15 70.0951Z" fill="black"/>
<path d="M171.109 120.153C172.497 120.128 173.887 120.116 175.276 120.08C175.395 120.08 175.509 120.032 175.592 119.948C175.676 119.865 175.724 119.751 175.724 119.632C175.724 119.513 175.676 119.4 175.592 119.316C175.509 119.232 175.395 119.185 175.276 119.185C173.886 119.21 172.497 119.222 171.109 119.258C170.99 119.258 170.876 119.305 170.792 119.389C170.709 119.473 170.661 119.587 170.661 119.706C170.661 119.824 170.709 119.938 170.792 120.022C170.876 120.106 170.99 120.153 171.109 120.153Z" fill="black"/>
<path d="M73.7909 128.875C73.9421 129.75 74.1046 131 73.3996 131.691C72.5709 132.507 71.1921 131.95 70.2971 131.566C69.7734 131.337 69.3171 132.108 69.8446 132.338C71.1234 132.895 72.7721 133.457 73.9596 132.398C74.9996 131.472 74.8671 129.88 74.6546 128.648C74.5571 128.066 73.6946 128.307 73.7909 128.875Z" fill="black"/>
<path d="M92.8747 81.1733C95.1931 82.5175 97.3057 84.1889 99.1472 86.1358C99.5385 86.5608 100.171 85.9258 99.7797 85.5033C97.9165 83.4674 95.7379 81.7445 93.3272 80.4008C93.2249 80.3408 93.1027 80.3239 92.9879 80.3539C92.873 80.3839 92.7747 80.4583 92.7147 80.5608C92.6547 80.6631 92.6378 80.7853 92.6678 80.9001C92.6978 81.015 92.7724 81.1133 92.8747 81.1733Z" fill="black"/>
<path d="M84.0759 65.5752C84.1099 65.6879 84.1861 65.7832 84.2884 65.8414C84.3908 65.8996 84.5117 65.9161 84.6259 65.8877C84.6827 65.8724 84.7359 65.846 84.7824 65.8099C84.8289 65.7739 84.8679 65.729 84.8969 65.6779C84.9259 65.6267 84.9447 65.5704 84.9518 65.512C84.9589 65.4536 84.9543 65.3944 84.9384 65.3377L77.5722 47.7502C77.5376 47.6375 77.4612 47.5424 77.3587 47.4842C77.2562 47.4262 77.1353 47.4095 77.0209 47.4377C76.9066 47.4695 76.8093 47.5454 76.7508 47.6487C76.6922 47.7521 76.6769 47.8744 76.7084 47.989C77.5409 49.9702 83.7747 64.8565 84.0759 65.5752Z" fill="black"/>
<path d="M86.8601 55.8922C86.9851 58.3447 87.2851 63.9347 87.3039 64.2785C87.3339 64.851 88.2289 64.8547 88.1976 64.2785C88.0726 61.826 87.7739 56.236 87.7551 55.8922C87.7251 55.3197 86.8301 55.316 86.8601 55.8922Z" fill="black"/>
<path d="M72.4913 61.4904C72.389 61.4345 72.2692 61.4207 72.1569 61.4519C72.0447 61.483 71.9489 61.5567 71.8902 61.6574C71.8314 61.7579 71.8143 61.8775 71.8422 61.9905C71.8702 62.1036 71.9412 62.2014 72.04 62.2629C74.6363 63.8666 80.615 67.4479 80.9913 67.6629C81.0935 67.7187 81.2135 67.7326 81.3257 67.7015C81.4379 67.6702 81.5337 67.5966 81.5924 67.496C81.6512 67.3954 81.6684 67.2759 81.6404 67.1627C81.6124 67.0497 81.5414 66.952 81.4425 66.8904C79.5863 65.7491 72.5938 61.5491 72.4913 61.4904Z" fill="black"/>
<path d="M91.1402 150.049C92.3215 152.299 102.699 172.759 103.904 174.966C103.947 175.064 104.024 175.143 104.122 175.188C104.219 175.233 104.329 175.24 104.431 175.21C104.556 175.21 104.116 175.335 116.874 172.039C116.962 172.015 117.042 171.97 117.106 171.905C117.17 171.841 117.216 171.761 117.239 171.674C117.674 168.626 118.666 161.661 118.728 161.228C118.756 161.116 118.748 160.999 118.705 160.893C118.662 160.788 118.586 160.698 118.488 160.639L91.854 149.335C91.7542 149.281 91.64 149.261 91.528 149.279C91.4161 149.295 91.3126 149.348 91.2326 149.428C91.1526 149.508 91.1005 149.61 91.0839 149.723C91.0672 149.834 91.087 149.949 91.1402 150.049ZM117.653 161.433C117.105 165.276 116.903 166.714 116.278 171.115L104.625 174.095C104.263 173.385 92.7052 150.821 92.7052 150.821C92.8352 150.875 117.524 161.383 117.653 161.433Z" fill="black"/>
<path d="M72.375 123.816C70.868 123.39 69.2676 123.425 67.7807 123.917C66.2938 124.409 64.9886 125.336 64.0337 126.578C62.05 129.284 62.8862 133.126 65.1025 135.427C66.2188 136.585 67.6825 137.347 69.2711 137.597C70.8598 137.847 72.4867 137.572 73.905 136.815C75.3232 136.056 76.4552 134.856 77.1293 133.396C77.8035 131.935 77.9827 130.295 77.64 128.724C77.3952 127.454 76.7533 126.294 75.8072 125.412C74.861 124.53 73.6592 123.971 72.375 123.816ZM74.4 135.242C73.2926 136.107 71.9333 136.587 70.5285 136.61C69.1235 136.632 67.7495 136.196 66.615 135.367C64.1037 133.556 62.975 129.654 64.935 127.1C67.06 124.323 70.935 123.99 74.0312 125.475C74.2783 125.596 74.5168 125.733 74.745 125.886C77.25 127.589 77.7275 132.566 74.4 135.242Z" fill="black"/>
<path d="M90.8441 165.631C90.7455 165.535 90.6129 165.481 90.4748 165.481C90.3366 165.481 90.204 165.535 90.1054 165.631L84.8254 171.091L82.0754 168.151C81.6141 167.66 80.8779 168.401 81.3366 168.89L84.1029 171.842L78.7504 177.375C78.6531 177.474 78.5986 177.606 78.5986 177.745C78.5986 177.882 78.6531 178.015 78.7504 178.114C81.2641 180.59 87.1954 186.057 87.5629 186.405C87.6155 186.455 87.677 186.492 87.7441 186.519L87.7654 186.525C87.8561 186.566 87.9578 186.576 88.0548 186.554C88.1516 186.531 88.2385 186.477 88.3016 186.4C89.4666 185.05 98.5054 175.175 98.9429 174.695C99.0384 174.595 99.0919 174.462 99.0919 174.325C99.0919 174.187 99.0384 174.055 98.9429 173.955L90.8441 165.631ZM87.9016 185.292L79.8604 177.729L84.8141 172.602L86.9116 174.84C87.3716 175.331 88.1091 174.591 87.6491 174.102L85.5404 171.851L90.4754 166.75L97.8504 174.342L87.9016 185.292Z" fill="black"/>
<path d="M180.208 125.395C183.996 126.743 188.117 123.379 187.108 119.483C186.724 118.412 186.011 117.49 185.072 116.849C184.132 116.208 183.013 115.88 181.876 115.913C180.739 115.946 179.642 116.337 178.741 117.031C177.839 117.725 177.181 118.687 176.858 119.778C176.639 120.961 176.858 122.184 177.474 123.218C178.091 124.252 179.063 125.026 180.208 125.395ZM179.467 117.715C179.978 117.381 180.552 117.152 181.153 117.041C181.754 116.931 182.372 116.941 182.969 117.072C183.566 117.202 184.132 117.45 184.632 117.802C185.132 118.153 185.558 118.6 185.883 119.118C185.346 119.133 178.918 119.368 178.112 119.4C178.416 118.734 178.882 118.155 179.467 117.715ZM177.798 120.465C180.584 120.34 183.371 120.223 186.159 120.16C186.254 121.061 186.041 121.967 185.553 122.731C185.066 123.494 184.333 124.069 183.477 124.363C180.702 125.398 177.562 123.202 177.798 120.462V120.465Z" fill="black"/>
<path d="M28.3465 157.789L17.7952 181.789C17.7271 181.913 17.7106 182.058 17.7492 182.193C17.7879 182.329 17.8786 182.443 18.0015 182.511C18.1265 182.579 69.809 195.771 69.934 195.803C70.0477 195.834 70.1689 195.821 70.274 195.768C70.274 195.768 93.7565 217.078 94.2365 217.475C94.3355 217.57 94.4677 217.624 94.6052 217.624C94.7427 217.624 94.875 217.57 94.974 217.475C113.974 198.759 132.518 179.1 156.463 157.505C156.56 157.406 156.615 157.274 156.615 157.136C156.615 156.998 156.56 156.865 156.463 156.766C156.264 156.59 99.8815 108.489 99.7415 108.371C102.326 107.809 104.746 106.661 106.816 105.015C107.875 105.315 120.295 108.791 121.023 108.994C121.355 110.19 121.309 109.961 121.448 110.44C121.776 111.589 122.416 112.626 123.296 113.435C124.176 114.243 125.262 114.793 126.435 115.024C132.076 116.094 134.786 116.806 137.72 117.591C137.016 120.282 136.61 123.041 136.508 125.82C136.329 133.228 142.164 143.055 149.573 142.164C152.326 141.699 154.865 140.38 156.83 138.395C158.81 140.925 160.894 143.368 163.08 145.724C163.455 164.526 163.461 163.111 163.336 163.236C154.411 172.009 145.64 180.573 137.521 189.046C137.396 189.171 134.813 191.86 134.734 191.985C134.234 192.34 122.08 205.708 119.603 209.009C119.042 209.625 118.621 210.355 118.368 211.149C118.115 211.943 118.037 212.781 118.138 213.608C118.28 214.181 118.562 214.71 118.96 215.146C119.358 215.583 119.858 215.913 120.415 216.108C121.519 216.448 122.69 216.503 123.821 216.269C124.952 216.035 126.006 215.52 126.884 214.77C126.664 215.271 126.549 215.813 126.546 216.36C126.542 216.908 126.65 217.45 126.863 217.955C127.077 218.46 127.39 218.915 127.785 219.294C128.18 219.674 128.649 219.968 129.161 220.16C130.043 220.39 130.963 220.433 131.862 220.283C132.76 220.133 133.617 219.795 134.376 219.291C136.835 217.718 136.698 217.193 136.369 218.116C136.193 218.535 136.105 218.985 136.113 219.439C136.119 219.893 136.22 220.34 136.409 220.754C136.596 221.166 136.869 221.535 137.208 221.838C137.546 222.14 137.944 222.369 138.375 222.51C139.991 222.983 141.834 222.144 143.24 221.419C145.15 220.39 146.95 219.171 148.615 217.78C150.915 215.925 161.936 206.436 165.251 203.53H238.713C238.85 203.529 238.983 203.473 239.08 203.375C239.178 203.278 239.234 203.146 239.235 203.008C239.235 179.898 240.525 163.703 233.644 149.654C233.609 148.343 233.46 143.624 233.425 142.575C233.855 142.951 234.374 143.214 234.931 143.338C235.49 143.463 236.07 143.444 236.62 143.285C239.028 142.424 238.995 139.32 238.595 137.256C238.311 135.806 238.021 134.904 237.148 131.555L240.671 137.04C241.089 137.814 241.628 138.516 242.268 139.12C242.605 139.368 242.996 139.529 243.41 139.591C243.824 139.654 244.246 139.616 244.641 139.48C245.036 139.345 245.394 139.116 245.681 138.813C245.969 138.509 246.179 138.141 246.294 137.739C246.589 136.818 246.686 135.844 246.578 134.881C246.43 132.173 245.848 129.506 244.85 126.984C245.908 127.943 246.65 129.304 247.738 130.209C249.139 131.375 251.488 132.228 252.928 130.63C254.47 128.919 253.553 126.55 252.441 124.9C248.651 119.255 247.316 116.781 245.001 113.798C245.05 113.679 245.068 113.55 245.051 113.423C244.163 106.91 244.005 101.268 242.068 87.2751C241.87 85.573 241.504 83.8949 240.974 82.2651C239.528 77.8686 236.766 74.0229 233.061 71.2489C228.968 68.3176 223.825 67.5264 218.966 66.7789C200.74 63.9789 181.25 63.1826 178.27 62.8364C176.713 62.6528 175.144 62.5739 173.575 62.6001C173.533 62.6036 173.49 62.6138 173.45 62.6301C167.139 62.8689 160.913 64.1616 155.028 66.4551C145.71 69.9551 136.833 77.3514 135.661 87.2451C135.39 90.1569 135.6 93.0935 136.286 95.9364L130.234 94.1539C130.258 92.4934 130.189 90.8329 130.026 89.1801C129.989 88.3869 129.9 87.5969 129.76 86.8151C129.597 86.1884 129.309 85.601 128.913 85.0881C128.518 84.5754 128.023 84.1476 127.458 83.8306C126.893 83.5136 126.27 83.3139 125.626 83.2434C124.982 83.1728 124.331 83.2329 123.711 83.42C123.091 83.6073 122.515 83.9176 122.018 84.3326C121.52 84.7475 121.112 85.2586 120.817 85.8351C120.522 86.4118 120.346 87.0419 120.3 87.688C120.254 88.334 120.339 88.9828 120.55 89.5951C120.73 90.2201 120.909 90.8451 121.113 91.4701L114.588 89.5489C114.685 79.7489 106.448 70.1314 95.1252 69.3514C91.0941 69.1065 87.0724 69.9639 83.4915 71.8314C75.479 76.3314 72.7565 86.4239 74.5552 94.1351C74.6327 94.4464 74.724 94.7526 74.8227 95.0589L57.434 110.288L44.4452 108.913C44.3321 108.915 44.2227 108.954 44.1329 109.022C44.043 109.091 43.9772 109.187 43.9452 109.295C43.3202 111.349 38.024 127.295 38.024 127.295L16.399 146.233C16.3017 146.331 16.2471 146.464 16.2471 146.603C16.2471 146.74 16.3017 146.873 16.399 146.971C16.399 146.971 26.0627 155.719 28.3465 157.789ZM18.979 181.676C19.2415 181.078 28.804 159.326 29.1577 158.523L68.804 194.436C62.7177 192.874 19.4565 181.79 18.979 181.676ZM147.125 164.45L142.463 160.141C141.97 159.686 141.229 160.423 141.724 160.88L146.349 165.156C132.625 177.73 104.696 206.078 104.696 206.078L99.2777 201.34C98.7777 200.899 98.0277 201.635 98.539 202.078L103.965 206.828C101.215 209.633 94.954 216.011 94.574 216.398C83.574 207.049 74.2177 192.36 72.1315 177.781C71.4034 172.48 71.7512 167.086 73.1544 161.921C74.5574 156.758 76.9869 151.929 80.2977 147.725C81.474 147.85 85.0165 148.421 87.2652 148.43C87.6451 148.426 88.0204 148.346 88.3691 148.196C88.718 148.046 89.0335 147.828 89.2972 147.555C89.5611 147.281 89.7679 146.959 89.9057 146.604C90.0436 146.25 90.1097 145.873 90.1002 145.493C90.0972 145.128 90.0181 144.766 89.8677 144.434C89.7565 144.1 88.8352 141.999 88.219 140.865C97.2245 135.844 107.6 133.836 117.829 135.135C132.569 137.428 144.141 147.243 155.309 157.135C152.553 159.544 149.825 161.983 147.125 164.45ZM70.8002 170.484C68.5192 161.149 65.0461 152.146 60.4665 143.699C58.8755 141.161 57.6154 138.431 56.7165 135.574C56.1676 133.622 56.1139 131.564 56.5601 129.586C57.0064 127.608 57.9385 125.772 59.2722 124.245C60.6061 122.718 62.2995 121.547 64.1995 120.839C66.0994 120.13 68.1459 119.907 70.154 120.188C73.8315 120.695 76.8277 122.991 79.6165 125.36C84.0981 129.164 88.327 133.256 92.2765 137.61C78.8377 143.345 71.4752 156.113 70.8052 170.484H70.8002ZM87.3315 141.423C87.9165 142.503 88.4065 143.65 88.8927 144.774C89.0359 145.088 89.0897 145.435 89.0486 145.776C89.0074 146.119 88.8725 146.444 88.659 146.714C88.4155 146.98 88.1077 147.178 87.7652 147.29C87.4229 147.401 87.0572 147.424 86.704 147.353C84.624 147.219 82.8565 147.029 81.1265 146.778C82.9551 144.73 85.0427 142.93 87.3365 141.423H87.3315ZM129.235 114.485C127.639 114.352 126.084 113.913 124.655 113.19C123.601 112.47 122.825 111.412 122.454 110.19C121.008 105.305 120.854 104.838 120.866 103.493C120.98 100.29 123.58 99.2614 126.054 101.368C127.968 102.979 130.745 107.788 131.954 110.263C132.23 110.828 133.009 110.406 132.909 109.86C132.458 107.425 129.685 101.75 132.594 100.625C137.519 98.8339 137.8 102.904 138.17 103.609C138.403 104.179 143.35 115.723 144.351 118.201C139.345 116.999 134.335 115.514 129.24 114.485H129.235ZM147.921 216.985C145.998 218.601 142.023 221.459 139.508 221.59C139.17 221.618 138.831 221.565 138.518 221.438C138.204 221.31 137.925 221.11 137.703 220.855C137.48 220.599 137.32 220.295 137.236 219.968C137.154 219.639 137.148 219.296 137.221 218.965C137.474 217.981 137.936 217.064 138.578 216.276C139.228 215.448 139.943 214.67 140.715 213.953C141.206 213.493 140.465 212.756 139.976 213.214C138.308 214.818 136.559 216.336 134.738 217.764C133.46 218.874 131.794 219.433 130.105 219.319C129.71 219.279 129.328 219.155 128.984 218.956C128.64 218.758 128.343 218.488 128.111 218.164C127.879 217.841 127.719 217.473 127.641 217.084C127.562 216.694 127.568 216.293 127.656 215.905C128.084 214.375 128.982 213.019 130.225 212.03C131.56 210.713 132.96 209.451 134.4 208.249C134.85 207.874 134.249 207.08 133.768 207.429C130.595 209.686 127.446 213.511 124.921 214.804C123.931 215.298 122.818 215.49 121.719 215.359C121.227 215.334 120.749 215.185 120.331 214.925C119.912 214.665 119.567 214.304 119.326 213.874C118.651 212.474 119.499 210.93 120.31 209.795C121.336 208.361 122.569 207.051 123.719 205.716C127.15 201.735 131.033 197.42 135.094 193.12C135.094 193.12 153.768 211.81 153.9 211.95C151.916 213.635 149.925 215.313 147.926 216.984L147.921 216.985ZM236.671 161.961C238.87 173.146 238.224 189.223 238.198 202.489C238.198 202.489 165.475 202.459 165.063 202.489C164.839 202.554 164.779 202.565 164.313 202.961C163.483 203.669 161.369 205.599 154.749 211.228L135.85 192.323C148.914 178.499 163.988 164.241 165 163.053C165.254 162.568 165.455 162.056 165.6 161.528C167.669 156.409 170.758 151.764 174.676 147.874C178.596 143.985 183.265 140.933 188.4 138.903C190.983 137.923 193.629 137.119 196.32 136.5C198.761 139.249 201.57 141.646 204.669 143.625C206.858 145.256 209.533 146.101 212.261 146.024C217.036 145.62 218.959 140.921 218.351 136.248C228.656 140.044 234.529 151.028 236.674 161.96L236.671 161.961ZM216.935 130.38C219.54 132.276 222.924 131.19 224.709 128.63C226.53 132.872 228.814 136.899 231.52 140.639C231.821 141.036 232.171 141.43 232.354 141.626C232.54 146.859 232.514 147.501 232.534 147.613C229.42 141.813 224.3 137.345 218.133 135.045C216.644 128.716 210.994 125.338 204.465 124.861C211.269 121.294 217.385 118.138 217.801 117.92C217.954 118.218 218.156 119.509 216.775 122.376C216.031 123.67 215.516 125.083 215.254 126.551C215.174 127.281 215.288 128.019 215.583 128.691C215.878 129.363 216.344 129.945 216.935 130.38ZM204.716 125.92C209.319 126.305 213.989 128.426 216.174 132.69C218.448 137.111 217.656 143.488 213.344 144.768C212.111 145.029 210.839 145.035 209.604 144.788C208.369 144.539 207.198 144.041 206.161 143.324C199.633 139.401 194.388 133.665 191.063 126.813C195.554 125.909 200.145 125.609 204.716 125.92ZM195.551 135.613C189.819 136.844 184.373 139.156 179.506 142.426C172.729 147.241 167.494 153.92 164.439 161.651C164.425 160.946 164.133 146.009 164.133 146.009L192.331 131.221C193.305 132.755 194.381 134.223 195.551 135.613ZM250.695 124.185C251.668 125.63 253.32 127.505 252.515 129.381C251.739 131.198 249.515 130.365 248.399 129.401C246.256 127.276 246.095 126.131 243.853 125.144C243.386 124.953 243.094 125.55 243.264 125.91C244.813 129.165 245.594 132.733 245.545 136.338C245.541 136.72 245.456 137.098 245.294 137.444C245.133 137.791 244.898 138.099 244.606 138.346C244.354 138.551 244.033 138.655 243.708 138.636C243.383 138.618 243.076 138.478 242.849 138.245C242.281 137.655 241.8 136.988 241.418 136.264L236.271 128.249C236.205 128.143 236.104 128.065 235.985 128.027C235.866 127.99 235.738 127.996 235.623 128.044C235.508 128.093 235.414 128.18 235.358 128.291C235.301 128.403 235.288 128.53 235.316 128.651C235.941 131.049 236.518 133.461 237.191 135.845C237.545 136.991 237.743 138.18 237.778 139.379C237.803 142.586 235.198 143.858 232.351 140.014C229.564 136.13 227.22 131.945 225.365 127.539C225.382 127.459 225.38 127.376 225.363 127.295C225.344 127.215 225.309 127.14 225.259 127.075C225.21 127.009 225.146 126.955 225.075 126.916C225.003 126.877 224.923 126.854 224.841 126.848C224.759 126.842 224.676 126.854 224.6 126.882C224.523 126.91 224.453 126.955 224.394 127.012C224.335 127.07 224.29 127.139 224.26 127.216C224.231 127.292 224.218 127.374 224.223 127.456C222.848 129.956 219.808 131.223 217.485 129.495C215.063 127.635 216.888 124.58 217.871 122.478C218.518 121.272 218.869 119.931 218.896 118.564C227.135 116.876 235.563 115.493 243.949 114.118C246.468 117.283 248.444 120.841 250.695 124.185ZM141.81 76.4689C145.161 72.8498 149.25 69.9913 153.8 68.0864C160.06 65.3868 166.77 63.8874 173.584 63.6664C173.623 63.6638 173.661 63.6579 173.699 63.6489C175.015 63.7089 176.324 63.6576 177.639 63.8026C180.568 64.1264 199.715 65.0614 216.611 67.4801C221.244 68.1426 226.188 68.6901 230.403 70.8551C234.963 73.3925 238.384 77.5711 239.973 82.5414C241.623 87.2289 243.256 107.486 243.973 113.066C234.911 114.558 227.463 115.768 219.098 117.469C219.041 117.251 218.984 117.032 218.926 116.813C218.894 116.693 218.818 116.589 218.714 116.521C218.61 116.453 218.484 116.426 218.361 116.445C217.486 113.238 212.564 95.0601 212.37 94.3426C212.34 94.2331 212.274 94.1366 212.184 94.0674C212.094 93.9983 211.984 93.9601 211.87 93.9589C209.608 93.9701 187.974 94.6126 185.964 94.7089C185.295 94.7401 185.291 95.7839 185.964 95.7526C189.915 95.5689 210.81 95.0301 211.473 95.0151C212.584 99.1289 217.405 116.9 217.405 116.9L202.399 124.775C198.29 124.686 194.185 125.079 190.168 125.946C190.053 125.971 189.95 126.038 189.883 126.135C189.816 126.232 189.789 126.351 189.806 126.468C190.359 127.811 191.021 129.107 191.786 130.343L165.683 144.033C165.088 144.344 164.401 144.621 163.816 144.984C161.518 142.515 159.334 139.946 157.265 137.276C153.125 131.966 149.44 126.316 146.25 120.386C145.925 119.798 145.024 120.324 145.349 120.914C147.435 124.696 148.813 127.124 150.81 130.099C150.614 130.867 150.36 131.619 150.05 132.349C149.77 132.955 150.675 133.486 150.951 132.876C151.194 132.336 151.4 131.779 151.566 131.21C152.925 133.171 153.903 134.498 156.201 137.571C152.115 141.321 147.625 142.705 143.364 138.999C141.596 137.406 140.17 135.471 139.173 133.311C138.175 131.151 137.625 128.811 137.558 126.433C137.618 123.542 138.011 120.667 138.731 117.866C140.463 118.329 142.384 118.831 145.086 119.456C145.271 119.499 146.403 119.323 146.058 118.69C144.124 114.373 142.176 110.065 140.433 105.658C138.485 100.729 136.703 95.4751 136.573 90.1301C136.504 85.0736 138.379 80.1838 141.81 76.4689ZM124.465 84.3026C125.086 84.1944 125.725 84.2435 126.322 84.4454C126.92 84.6474 127.457 84.9959 127.885 85.4589C128.564 86.2983 128.93 87.348 128.919 88.4276C129.151 90.4471 129.227 92.4815 129.148 94.5126C129.015 95.0218 128.753 95.4879 128.387 95.8654C128.021 96.2429 127.563 96.5189 127.058 96.6664C126.516 96.749 125.962 96.6886 125.45 96.4913C124.939 96.294 124.488 95.9665 124.141 95.5414C123.491 94.6513 122.98 93.6676 122.625 92.6239C122.09 91.3499 121.68 90.027 121.4 88.6739C121.311 88.1853 121.32 87.6839 121.426 87.1986C121.532 86.7134 121.734 86.2541 122.019 85.8475C122.304 85.4408 122.667 85.0948 123.087 84.8296C123.507 84.5644 123.975 84.3853 124.465 84.3026ZM121.533 92.6776C121.9 93.7563 122.395 94.7873 123.006 95.7489C123.367 96.3976 123.907 96.9288 124.562 97.2788C125.216 97.6288 125.958 97.7829 126.698 97.7226C127.438 97.6624 128.145 97.3904 128.734 96.939C129.323 96.4878 129.77 95.8763 130.021 95.1776L136.556 97.1014C136.781 98.0364 137.034 98.9614 137.306 99.8789C136.343 99.3675 135.254 99.1399 134.165 99.2224C133.077 99.3049 132.035 99.6943 131.159 100.345C129.881 101.558 130.215 103.885 130.666 105.753C130.041 104.753 129.639 104.158 128.856 103.029C127.92 101.409 126.473 100.144 124.741 99.4326C124.227 99.2578 123.681 99.1978 123.141 99.2568C122.601 99.3156 122.081 99.4923 121.616 99.7739C120.366 100.583 119.48 102.353 119.98 105.119C120.134 106.035 120.367 106.936 120.676 107.811C120.676 107.811 108.918 104.523 107.77 104.199C111.691 100.714 114.11 95.846 114.52 90.6164L121.533 92.6776ZM76.8265 80.8251C79.4902 74.5176 85.0202 71.0351 91.8665 70.4714C96.2986 69.9656 100.767 71.0375 104.488 73.4989C106.835 75 108.84 76.9774 110.375 79.303C111.909 81.6285 112.938 84.2505 113.394 86.9989C113.924 91.3575 112.906 95.7638 110.519 99.4489C108.132 103.134 104.527 105.864 100.333 107.163C90.8602 109.739 79.1852 104.136 75.899 94.9989C74.5636 90.3088 74.8914 85.3013 76.8265 80.8251ZM44.8102 109.999L56.3702 111.224L39.5627 125.941C40.4552 123.226 44.6002 110.631 44.8102 109.999ZM75.2027 96.1114C79.1002 105.035 89.4202 109.919 98.4165 108.611L136.799 141.361C126.424 134.98 115.868 132.186 103.344 134.486C99.9144 135.036 96.5524 135.946 93.314 137.203C89.274 132.731 84.9451 128.529 80.3552 124.624C78.1214 122.523 75.5134 120.859 72.6665 119.719C70.6862 119.054 68.5765 118.867 66.5102 119.174C64.4439 119.481 62.4796 120.273 60.7784 121.486C59.077 122.698 57.687 124.296 56.722 126.149C55.757 128.001 55.2445 130.056 55.2265 132.145C55.1727 137.804 58.9652 142.695 61.6952 148.239C65.859 156.868 68.9362 165.979 70.8565 175.364C70.8652 175.498 70.9115 176.078 70.9265 176.239C66.6115 165.415 65.1765 158.263 60.6415 147.974C58.7665 143.984 57.2477 142.099 55.754 138.535C54.8549 136.624 54.383 134.539 54.3714 132.426C54.3597 130.314 54.8085 128.224 55.6865 126.303C55.9365 125.768 56.2227 125.245 56.5215 124.733C56.5854 124.614 56.6006 124.474 56.564 124.344C56.5274 124.214 56.4416 124.103 56.325 124.035C56.2082 123.967 56.0696 123.946 55.9382 123.978C55.8069 124.01 55.6929 124.091 55.6202 124.205C54.4229 126.113 53.6615 128.263 53.3902 130.499C52.7027 136.883 56.5652 142.296 58.7815 146.556C63.2377 155.119 66.1865 168.24 71.4965 180.286C73.6165 190.03 77.9537 199.153 84.1715 206.948C34.939 162.349 18.109 147.124 17.5702 146.591L75.2027 96.1114Z" fill="black"/>
<path d="M135.862 69.8971C136.632 69.5954 137.315 69.1084 137.852 68.4791C138.389 67.85 138.762 67.0981 138.939 66.2902C139.115 65.4824 139.09 64.6434 138.864 63.8476C138.639 63.0519 138.222 62.324 137.648 61.7284C136.724 60.7978 135.498 60.2289 134.191 60.1247C132.883 60.0206 131.582 60.3882 130.523 61.1609C129.652 61.9057 129.061 62.9264 128.85 64.0531C128.639 65.1799 128.82 66.3449 129.363 67.3546C129.954 68.4944 130.939 69.3806 132.134 69.8482C133.33 70.316 134.654 70.3334 135.862 69.8971ZM137.822 63.9459C138.044 64.6287 138.079 65.359 137.922 66.0599C137.765 66.7607 137.423 67.4065 136.93 67.9292C136.438 68.4519 135.813 68.8324 135.123 69.0306C134.433 69.2289 133.702 69.2376 133.007 69.0559C131.947 68.7867 131.035 68.1138 130.465 67.1809C132.313 65.3671 134.215 63.6096 136.118 61.8584C136.914 62.3321 137.517 63.0712 137.822 63.9459ZM135.048 61.3559C132.985 63.2446 131.847 64.2684 129.983 66.1059C129.755 65.4129 129.729 64.6691 129.91 63.9622C130.09 63.2552 130.468 62.6145 131 62.1154C131.533 61.6164 132.196 61.2797 132.913 61.1451C133.63 61.0106 134.371 61.0838 135.048 61.3559Z" fill="black"/>
<path d="M124.894 73.0677L127.836 70.779C127.885 70.7306 127.923 70.6731 127.949 70.6098C127.975 70.5466 127.989 70.4787 127.989 70.4102C127.989 70.3417 127.975 70.274 127.949 70.2106C127.923 70.1473 127.885 70.0898 127.836 70.0415C127.737 69.946 127.604 69.8926 127.467 69.8926C127.329 69.8926 127.197 69.946 127.097 70.0415L124.155 72.329C124.057 72.427 124.002 72.5598 124.002 72.6983C124.002 72.8368 124.057 72.9697 124.155 73.0677C124.254 73.1633 124.386 73.2167 124.524 73.2167C124.662 73.2167 124.794 73.1633 124.894 73.0677Z" fill="black"/>
<path d="M171.109 120.226L175.276 120.153C175.41 120.146 175.536 120.088 175.629 119.991C175.721 119.894 175.774 119.765 175.774 119.631C175.774 119.497 175.721 119.368 175.629 119.271C175.536 119.173 175.41 119.116 175.276 119.109L171.109 119.183C170.975 119.189 170.849 119.247 170.756 119.344C170.664 119.441 170.611 119.57 170.611 119.705C170.611 119.839 170.664 119.968 170.756 120.065C170.849 120.162 170.975 120.22 171.109 120.226Z" fill="black"/>
<path d="M85.5378 94.6723C91.6916 104.071 102.449 103.935 105.585 98.2973C107.988 93.9786 105.904 87.2973 102.947 83.2561C100.762 80.1858 97.6931 77.8551 94.1491 76.5748C91.8601 75.6677 89.3215 75.6127 86.9953 76.4198C82.2703 78.4798 80.9016 83.6598 82.4578 88.3436C83.1471 90.6013 84.1865 92.7369 85.5378 94.6723ZM82.9628 83.4473C83.0742 82.3879 83.4113 81.3648 83.9515 80.4467C84.4916 79.5286 85.2222 78.7368 86.0941 78.1248C90.8266 74.6698 101.358 78.7348 104.878 89.4373C105.647 91.7007 105.768 94.1341 105.227 96.4623C104.842 97.6494 104.133 98.7053 103.18 99.5107C102.227 100.316 101.067 100.839 99.8328 101.02C92.6178 102.092 86.7491 96.4173 84.0203 89.6823C83.1478 87.7264 82.7841 85.5816 82.9628 83.4473Z" fill="black"/>
<path d="M106.251 151.896C109.126 151.089 115.827 149.376 116.029 149.253C116.136 149.213 116.225 149.136 116.279 149.038C116.389 148.81 116.208 149.76 117.629 140.026C117.657 139.899 117.639 139.766 117.578 139.653C117.516 139.538 117.416 139.449 117.296 139.401C117.286 139.395 117.275 139.389 117.264 139.385H117.227C117.143 139.364 117.056 139.365 116.973 139.389C116.89 139.414 116.815 139.459 116.756 139.521C113.029 143.634 109.911 146.86 108.707 148.081C106.162 150.665 105.792 150.936 105.707 151.093C105.648 151.179 105.616 151.281 105.615 151.385C105.615 151.49 105.646 151.593 105.705 151.679C105.763 151.766 105.847 151.834 105.944 151.871C106.042 151.91 106.148 151.919 106.251 151.896ZM116.363 141.479C116.03 143.774 115.696 146.07 115.363 148.368C112.863 149.063 110.353 149.711 107.849 150.386C111.126 147.11 113.543 144.546 116.363 141.479Z" fill="black"/>
<path d="M73.7218 128.891C73.8668 129.74 74.033 130.962 73.3468 131.641C72.5468 132.427 71.1955 131.872 70.333 131.497C70.2126 131.431 70.0715 131.414 69.9388 131.449C69.806 131.484 69.6916 131.568 69.6193 131.685C69.5846 131.744 69.562 131.81 69.5526 131.877C69.5434 131.945 69.5475 132.014 69.565 132.081C69.5824 132.147 69.6128 132.209 69.6541 132.264C69.6956 132.318 69.7475 132.364 69.8068 132.399C71.1193 132.971 72.7943 133.532 74.0118 132.447C75.073 131.502 74.943 129.882 74.7255 128.62C74.6143 127.952 73.608 128.232 73.7218 128.891Z" fill="black"/>
<path d="M152.741 97.6519C157.505 98.0369 167.069 98.8607 167.088 98.8607C167.144 98.8684 167.2 98.865 167.255 98.8507C167.309 98.8364 167.36 98.8114 167.405 98.7773C167.45 98.7431 167.488 98.7004 167.516 98.6517C167.544 98.6029 167.563 98.549 167.57 98.4932C167.591 98.3357 168.734 91.2169 169.489 85.4669C169.49 85.378 169.469 85.2903 169.426 85.2122C169.384 85.1342 169.321 85.0684 169.246 85.0215C169.17 84.9745 169.084 84.9479 168.995 84.9443C168.906 84.9407 168.818 84.96 168.739 85.0007C168.614 85.0757 162.949 89.1257 152.458 96.6257C152.348 96.6837 152.261 96.7774 152.211 96.8915C152.163 97.0057 152.154 97.1332 152.186 97.2529C152.22 97.3728 152.293 97.4777 152.394 97.5502C152.495 97.6228 152.618 97.6587 152.741 97.6519ZM168.286 86.5919C167.77 90.3257 167.148 94.0444 166.644 97.7794C162.465 97.4394 158.288 97.0682 154.109 96.7232L168.286 86.5919Z" fill="black"/>
<path d="M226.625 74.6816L231.359 78.1454C231.902 78.5429 232.423 77.6366 231.885 77.2441C230.308 76.0891 228.73 74.9345 227.152 73.7804C226.609 73.3829 226.088 74.2879 226.625 74.6816Z" fill="black"/>
<path d="M233.927 124.089C233.552 123.535 232.648 124.056 233.024 124.616L234.607 126.96C234.982 127.512 235.886 126.991 235.508 126.432L233.927 124.089Z" fill="black"/>
<path d="M241.85 120.969L243.075 123.469C243.371 124.072 244.271 123.544 243.978 122.942C243.569 122.109 243.161 121.276 242.753 120.442C242.456 119.839 241.556 120.367 241.85 120.969Z" fill="black"/>
<path d="M194.125 176.733C190.649 179.793 168.06 199.664 166.278 201.232C165.772 201.677 166.513 202.413 167.015 201.97C170.493 198.913 193.08 179.041 194.864 177.47C195.365 177.027 194.625 176.291 194.125 176.733Z" fill="black"/>
<path d="M163.979 196.797L160.473 199.247C159.926 199.63 160.448 200.535 161 200.149L164.5 197.699C165.051 197.316 164.53 196.411 163.979 196.797Z" fill="black"/>
<path d="M142.169 212.904L143.899 210.91C144.338 210.41 143.602 209.66 143.161 210.171L141.431 212.165C140.992 212.67 141.728 213.412 142.169 212.904Z" fill="black"/>
<path d="M135.657 206.909L137.928 204.69C138.409 204.22 137.678 203.483 137.191 203.951L134.918 206.17C134.437 206.64 135.176 207.375 135.657 206.909Z" fill="black"/>
<path d="M92.8378 81.2365C95.1511 82.5779 97.259 84.2454 99.0966 86.1878C99.5528 86.6878 100.289 85.9378 99.8341 85.4503C97.9576 83.4186 95.775 81.6928 93.3653 80.3353C93.2432 80.27 93.1003 80.2558 92.9677 80.2956C92.8352 80.3354 92.7237 80.4261 92.6578 80.5478C92.594 80.6639 92.5771 80.7999 92.6106 80.928C92.6441 81.0561 92.7255 81.1666 92.8378 81.2365Z" fill="black"/>
<path d="M83.9998 65.5946C84.0399 65.726 84.1289 65.8371 84.2484 65.905C84.3679 65.9729 84.5088 65.9924 84.6423 65.9596C84.7084 65.9414 84.7704 65.9102 84.8245 65.8681C84.8787 65.826 84.9239 65.7736 84.9579 65.714C84.9918 65.6542 85.0135 65.5885 85.022 65.5204C85.0306 65.4524 85.0256 65.3832 85.0073 65.3171L77.6448 47.7259C77.6047 47.5945 77.5157 47.4835 77.3962 47.4157C77.2765 47.3481 77.1356 47.3289 77.0023 47.3621C76.9361 47.3801 76.8741 47.4111 76.8199 47.4532C76.7657 47.4954 76.7204 47.5479 76.6865 47.6076C76.6528 47.6674 76.6312 47.7331 76.6229 47.8012C76.6147 47.8694 76.6199 47.9385 76.6386 48.0046C76.7961 48.3834 83.9411 65.4434 83.9998 65.5946Z" fill="black"/>
<path d="M87.2298 64.2774C87.2648 64.9449 88.3085 64.9499 88.2735 64.2774C88.1485 61.8249 87.831 55.8912 87.831 55.8912C87.7948 55.2224 86.751 55.2187 86.786 55.8912C87.0548 60.9762 87.1485 62.7562 87.2298 64.2774Z" fill="black"/>
<path d="M72.0001 62.3289C74.6126 63.9039 80.5751 67.5139 80.9514 67.7276C81.0116 67.761 81.0779 67.7821 81.1464 67.7895C81.2149 67.797 81.2841 67.7907 81.3501 67.771C81.4161 67.7514 81.4776 67.7187 81.5308 67.675C81.584 67.6312 81.628 67.5774 81.6601 67.5164C81.7226 67.3997 81.7388 67.2637 81.7051 67.1357C81.6715 67.0077 81.5906 66.8972 81.4789 66.8264C81.4789 66.8264 72.9026 61.6414 72.5276 61.4264C72.4684 61.3917 72.4029 61.3691 72.3349 61.3599C72.2669 61.3505 72.1976 61.3546 72.1313 61.3721C72.0649 61.3895 72.0026 61.4197 71.9479 61.4612C71.8933 61.5027 71.8473 61.5546 71.8126 61.6139C71.778 61.6731 71.7554 61.7386 71.746 61.8066C71.7368 61.8746 71.7409 61.9439 71.7583 62.0102C71.7758 62.0766 71.806 62.139 71.8475 62.1936C71.889 62.2482 71.9409 62.2942 72.0001 62.3289Z" fill="black"/>
</svg>
