<svg width="12" height="12" viewBox="0 0 12 12" fill="none" xmlns="http://www.w3.org/2000/svg">
<path d="M11.571 6H4.71387" stroke="white" stroke-linecap="round" stroke-linejoin="round"/>
<path d="M6.42815 4.28564L4.71387 5.99993L6.42815 7.71422" stroke="white" stroke-linecap="round" stroke-linejoin="round"/>
<path d="M10.6969 9.00014C10.048 10.0155 9.08745 10.7932 7.95924 11.2165C6.83103 11.6398 5.59599 11.6859 4.43936 11.3479C3.28273 11.0099 2.26685 10.306 1.5441 9.34186C0.82134 8.37767 0.430664 7.20514 0.430664 6.00014C0.430664 4.79514 0.82134 3.62261 1.5441 2.65842C2.26685 1.69423 3.28273 0.990359 4.43936 0.652367C5.59599 0.314374 6.83103 0.360484 7.95924 0.783781C9.08745 1.20708 10.048 1.98474 10.6969 3.00014" stroke="white" stroke-linecap="round" stroke-linejoin="round"/>
</svg>
